<svg xmlns="http://www.w3.org/2000/svg" xmlns:xlink="http://www.w3.org/1999/xlink" version="1.1" class="marks" width="1158" height="781" viewBox="0 0 1158 781"><rect width="1158" height="781" fill="white"/><g fill="none" stroke-miterlimit="10" transform="translate(59,44)"><g class="mark-group role-frame root" role="graphics-object" aria-roledescription="group mark container"><g transform="translate(0,0)"><path class="background" aria-hidden="true" d="M0.5,0.5h900v700h-900Z" stroke="#ddd"/><g><g class="mark-group role-axis" aria-hidden="true"><g transform="translate(0.5,0.5)"><path class="background" aria-hidden="true" d="M0,0h0v0h0Z" pointer-events="none"/><g><g class="mark-rule role-axis-grid" pointer-events="none"><line transform="translate(0,700)" x2="900" y2="0" stroke="#ddd" stroke-width="1" opacity="1"/><line transform="translate(0,665)" x2="900" y2="0" stroke="#ddd" stroke-width="1" opacity="1"/><line transform="translate(0,630)" x2="900" y2="0" stroke="#ddd" stroke-width="1" opacity="1"/><line transform="translate(0,595)" x2="900" y2="0" stroke="#ddd" stroke-width="1" opacity="1"/><line transform="translate(0,560)" x2="900" y2="0" stroke="#ddd" stroke-width="1" opacity="1"/><line transform="translate(0,525)" x2="900" y2="0" stroke="#ddd" stroke-width="1" opacity="1"/><line transform="translate(0,490)" x2="900" y2="0" stroke="#ddd" stroke-width="1" opacity="1"/><line transform="translate(0,455)" x2="900" y2="0" stroke="#ddd" stroke-width="1" opacity="1"/><line transform="translate(0,420)" x2="900" y2="0" stroke="#ddd" stroke-width="1" opacity="1"/><line transform="translate(0,385)" x2="900" y2="0" stroke="#ddd" stroke-width="1" opacity="1"/><line transform="translate(0,350)" x2="900" y2="0" stroke="#ddd" stroke-width="1" opacity="1"/><line transform="translate(0,315)" x2="900" y2="0" stroke="#ddd" stroke-width="1" opacity="1"/><line transform="translate(0,280)" x2="900" y2="0" stroke="#ddd" stroke-width="1" opacity="1"/><line transform="translate(0,245)" x2="900" y2="0" stroke="#ddd" stroke-width="1" opacity="1"/><line transform="translate(0,210)" x2="900" y2="0" stroke="#ddd" stroke-width="1" opacity="1"/><line transform="translate(0,175)" x2="900" y2="0" stroke="#ddd" stroke-width="1" opacity="1"/><line transform="translate(0,140)" x2="900" y2="0" stroke="#ddd" stroke-width="1" opacity="1"/><line transform="translate(0,105)" x2="900" y2="0" stroke="#ddd" stroke-width="1" opacity="1"/><line transform="translate(0,70)" x2="900" y2="0" stroke="#ddd" stroke-width="1" opacity="1"/><line transform="translate(0,35)" x2="900" y2="0" stroke="#ddd" stroke-width="1" opacity="1"/><line transform="translate(0,0)" x2="900" y2="0" stroke="#ddd" stroke-width="1" opacity="1"/></g></g><path class="foreground" aria-hidden="true" d="" pointer-events="none" display="none"/></g></g><g class="mark-group role-axis" role="graphics-symbol" aria-roledescription="axis" aria-label="X-axis titled 'Jour' for a discrete scale with 6 values: Lundi, Mardi, Mercredi, Jeudi, Vendredi, Samedi"><g transform="translate(0.5,700.5)"><path class="background" aria-hidden="true" d="M0,0h0v0h0Z" pointer-events="none"/><g><g class="mark-rule role-axis-tick" pointer-events="none"><line transform="translate(75,0)" x2="0" y2="5" stroke="#888" stroke-width="1" opacity="1"/><line transform="translate(225,0)" x2="0" y2="5" stroke="#888" stroke-width="1" opacity="1"/><line transform="translate(375,0)" x2="0" y2="5" stroke="#888" stroke-width="1" opacity="1"/><line transform="translate(525,0)" x2="0" y2="5" stroke="#888" stroke-width="1" opacity="1"/><line transform="translate(675,0)" x2="0" y2="5" stroke="#888" stroke-width="1" opacity="1"/><line transform="translate(825,0)" x2="0" y2="5" stroke="#888" stroke-width="1" opacity="1"/></g><g class="mark-text role-axis-label" pointer-events="none"><text text-anchor="middle" transform="translate(74.5,15)" font-family="sans-serif" font-size="10px" fill="#000" opacity="1">Lundi</text><text text-anchor="middle" transform="translate(224.5,15)" font-family="sans-serif" font-size="10px" fill="#000" opacity="1">Mardi</text><text text-anchor="middle" transform="translate(374.5,15)" font-family="sans-serif" font-size="10px" fill="#000" opacity="1">Mercredi</text><text text-anchor="middle" transform="translate(524.5,15)" font-family="sans-serif" font-size="10px" fill="#000" opacity="1">Jeudi</text><text text-anchor="middle" transform="translate(674.5,15)" font-family="sans-serif" font-size="10px" fill="#000" opacity="1">Vendredi</text><text text-anchor="middle" transform="translate(824.5,15)" font-family="sans-serif" font-size="10px" fill="#000" opacity="1">Samedi</text></g><g class="mark-rule role-axis-domain" pointer-events="none"><line transform="translate(0,0)" x2="900" y2="0" stroke="#888" stroke-width="1" opacity="1"/></g><g class="mark-text role-axis-title" pointer-events="none"><text text-anchor="middle" transform="translate(450,30)" font-family="sans-serif" font-size="11px" font-weight="bold" fill="#000" opacity="1">Jour</text></g></g><path class="foreground" aria-hidden="true" d="" pointer-events="none" display="none"/></g></g><g class="mark-group role-axis" role="graphics-symbol" aria-roledescription="axis" aria-label="Y-axis titled 'Pourcentage' for a linear scale with values from 0% to 100%"><g transform="translate(0.5,0.5)"><path class="background" aria-hidden="true" d="M0,0h0v0h0Z" pointer-events="none"/><g><g class="mark-rule role-axis-tick" pointer-events="none"><line transform="translate(0,700)" x2="-5" y2="0" stroke="#888" stroke-width="1" opacity="1"/><line transform="translate(0,665)" x2="-5" y2="0" stroke="#888" stroke-width="1" opacity="1"/><line transform="translate(0,630)" x2="-5" y2="0" stroke="#888" stroke-width="1" opacity="1"/><line transform="translate(0,595)" x2="-5" y2="0" stroke="#888" stroke-width="1" opacity="1"/><line transform="translate(0,560)" x2="-5" y2="0" stroke="#888" stroke-width="1" opacity="1"/><line transform="translate(0,525)" x2="-5" y2="0" stroke="#888" stroke-width="1" opacity="1"/><line transform="translate(0,490)" x2="-5" y2="0" stroke="#888" stroke-width="1" opacity="1"/><line transform="translate(0,455)" x2="-5" y2="0" stroke="#888" stroke-width="1" opacity="1"/><line transform="translate(0,420)" x2="-5" y2="0" stroke="#888" stroke-width="1" opacity="1"/><line transform="translate(0,385)" x2="-5" y2="0" stroke="#888" stroke-width="1" opacity="1"/><line transform="translate(0,350)" x2="-5" y2="0" stroke="#888" stroke-width="1" opacity="1"/><line transform="translate(0,315)" x2="-5" y2="0" stroke="#888" stroke-width="1" opacity="1"/><line transform="translate(0,280)" x2="-5" y2="0" stroke="#888" stroke-width="1" opacity="1"/><line transform="translate(0,245)" x2="-5" y2="0" stroke="#888" stroke-width="1" opacity="1"/><line transform="translate(0,210)" x2="-5" y2="0" stroke="#888" stroke-width="1" opacity="1"/><line transform="translate(0,175)" x2="-5" y2="0" stroke="#888" stroke-width="1" opacity="1"/><line transform="translate(0,140)" x2="-5" y2="0" stroke="#888" stroke-width="1" opacity="1"/><line transform="translate(0,105)" x2="-5" y2="0" stroke="#888" stroke-width="1" opacity="1"/><line transform="translate(0,70)" x2="-5" y2="0" stroke="#888" stroke-width="1" opacity="1"/><line transform="translate(0,35)" x2="-5" y2="0" stroke="#888" stroke-width="1" opacity="1"/><line transform="translate(0,0)" x2="-5" y2="0" stroke="#888" stroke-width="1" opacity="1"/></g><g class="mark-text role-axis-label" pointer-events="none"><text text-anchor="end" transform="translate(-7,703)" font-family="sans-serif" font-size="10px" fill="#000" opacity="1">0%</text><text text-anchor="end" transform="translate(-7,668)" font-family="sans-serif" font-size="10px" fill="#000" opacity="1">5%</text><text text-anchor="end" transform="translate(-7,633)" font-family="sans-serif" font-size="10px" fill="#000" opacity="1">10%</text><text text-anchor="end" transform="translate(-7,598)" font-family="sans-serif" font-size="10px" fill="#000" opacity="1">15%</text><text text-anchor="end" transform="translate(-7,563)" font-family="sans-serif" font-size="10px" fill="#000" opacity="1">20%</text><text text-anchor="end" transform="translate(-7,528)" font-family="sans-serif" font-size="10px" fill="#000" opacity="1">25%</text><text text-anchor="end" transform="translate(-7,492.99999999999994)" font-family="sans-serif" font-size="10px" fill="#000" opacity="1">30%</text><text text-anchor="end" transform="translate(-7,458)" font-family="sans-serif" font-size="10px" fill="#000" opacity="1">35%</text><text text-anchor="end" transform="translate(-7,423)" font-family="sans-serif" font-size="10px" fill="#000" opacity="1">40%</text><text text-anchor="end" transform="translate(-7,388.00000000000006)" font-family="sans-serif" font-size="10px" fill="#000" opacity="1">45%</text><text text-anchor="end" transform="translate(-7,353)" font-family="sans-serif" font-size="10px" fill="#000" opacity="1">50%</text><text text-anchor="end" transform="translate(-7,317.99999999999994)" font-family="sans-serif" font-size="10px" fill="#000" opacity="1">55%</text><text text-anchor="end" transform="translate(-7,283)" font-family="sans-serif" font-size="10px" fill="#000" opacity="1">60%</text><text text-anchor="end" transform="translate(-7,247.99999999999997)" font-family="sans-serif" font-size="10px" fill="#000" opacity="1">65%</text><text text-anchor="end" transform="translate(-7,213.00000000000003)" font-family="sans-serif" font-size="10px" fill="#000" opacity="1">70%</text><text text-anchor="end" transform="translate(-7,178)" font-family="sans-serif" font-size="10px" fill="#000" opacity="1">75%</text><text text-anchor="end" transform="translate(-7,142.99999999999997)" font-family="sans-serif" font-size="10px" fill="#000" opacity="1">80%</text><text text-anchor="end" transform="translate(-7,108.00000000000001)" font-family="sans-serif" font-size="10px" fill="#000" opacity="1">85%</text><text text-anchor="end" transform="translate(-7,72.99999999999999)" font-family="sans-serif" font-size="10px" fill="#000" opacity="1">90%</text><text text-anchor="end" transform="translate(-7,38.00000000000003)" font-family="sans-serif" font-size="10px" fill="#000" opacity="1">95%</text><text text-anchor="end" transform="translate(-7,3)" font-family="sans-serif" font-size="10px" fill="#000" opacity="1">100%</text></g><g class="mark-rule role-axis-domain" pointer-events="none"><line transform="translate(0,700)" x2="0" y2="-700" stroke="#888" stroke-width="1" opacity="1"/></g><g class="mark-text role-axis-title" pointer-events="none"><text text-anchor="middle" transform="translate(-43,350) rotate(-90) translate(0,-2)" font-family="sans-serif" font-size="11px" font-weight="bold" fill="#000" opacity="1">Pourcentage</text></g></g><path class="foreground" aria-hidden="true" d="" pointer-events="none" display="none"/></g></g><g class="mark-rect role-mark marks" role="graphics-object" aria-roledescription="rect mark container"><path aria-label="Jour: Lundi; Pourcentage: 17%; Disponibilité: Occupée; Catégorie: Occupée" role="graphics-symbol" aria-roledescription="bar" d="M7.5,583.3333333333334h135v116.66666666666663h-135Z" fill="#F5A788"/><path aria-label="Jour: Lundi; Pourcentage: 83%; Disponibilité: Disponible; Catégorie: Disponible" role="graphics-symbol" aria-roledescription="bar" d="M7.5,0h135v583.3333333333334h-135Z" fill="#98CE00"/><path aria-label="Jour: Mardi; Pourcentage: 17%; Disponibilité: Occupée; Catégorie: Occupée" role="graphics-symbol" aria-roledescription="bar" d="M157.5,583.3333333333334h135v116.66666666666663h-135Z" fill="#F5A788"/><path aria-label="Jour: Mardi; Pourcentage: 83%; Disponibilité: Disponible; Catégorie: Disponible" role="graphics-symbol" aria-roledescription="bar" d="M157.5,0h135v583.3333333333334h-135Z" fill="#98CE00"/><path aria-label="Jour: Mercredi; Pourcentage: 33%; Disponibilité: Occupée; Catégorie: Occupée" role="graphics-symbol" aria-roledescription="bar" d="M307.5,466.66666666666674h135v233.33333333333326h-135Z" fill="#F5A788"/><path aria-label="Jour: Mercredi; Pourcentage: 67%; Disponibilité: Disponible; Catégorie: Disponible" role="graphics-symbol" aria-roledescription="bar" d="M307.5,0h135v466.66666666666674h-135Z" fill="#98CE00"/><path aria-label="Jour: Jeudi; Pourcentage: 0%; Disponibilité: Occupée; Catégorie: Occupée" role="graphics-symbol" aria-roledescription="bar" d="M457.5,700h135v0h-135Z" fill="#F5A788"/><path aria-label="Jour: Jeudi; Pourcentage: 100%; Disponibilité: Disponible; Catégorie: Disponible" role="graphics-symbol" aria-roledescription="bar" d="M457.5,0h135v700h-135Z" fill="#98CE00"/><path aria-label="Jour: Vendredi; Pourcentage: 17%; Disponibilité: Occupée; Catégorie: Occupée" role="graphics-symbol" aria-roledescription="bar" d="M607.5,583.3333333333334h135v116.66666666666663h-135Z" fill="#F5A788"/><path aria-label="Jour: Vendredi; Pourcentage: 83%; Disponibilité: Disponible; Catégorie: Disponible" role="graphics-symbol" aria-roledescription="bar" d="M607.5,0h135v583.3333333333334h-135Z" fill="#98CE00"/><path aria-label="Jour: Samedi; Pourcentage: 0%; Disponibilité: Occupée; Catégorie: Occupée" role="graphics-symbol" aria-roledescription="bar" d="M757.5,700h135v0h-135Z" fill="#F5A788"/><path aria-label="Jour: Samedi; Pourcentage: 100%; Disponibilité: Disponible; Catégorie: Disponible" role="graphics-symbol" aria-roledescription="bar" d="M757.5,0h135v700h-135Z" fill="#98CE00"/></g><g class="mark-group role-legend" role="graphics-symbol" aria-roledescription="legend" aria-label="Symbol legend titled 'Disponibilité' for fill color with 2 values: Occupée, Disponible"><g transform="translate(918,0)"><path class="background" aria-hidden="true" d="M0,0h176v59h-176Z" pointer-events="none"/><g><g class="mark-group role-legend-entry"><g transform="translate(0,22)"><path class="background" aria-hidden="true" d="M0,0h0v0h0Z" pointer-events="none"/><g><g class="mark-group role-scope" role="graphics-object" aria-roledescription="group mark container"><g transform="translate(0,0)"><path class="background" aria-hidden="true" d="M0,0h157v16.5h-157Z" pointer-events="none" opacity="1"/><g><g class="mark-symbol role-legend-symbol" pointer-events="none"><path transform="translate(8.5,8.5)" d="M-5,-5h10v10h-10Z" fill="#F5A788" stroke-width="1.5" opacity="1"/></g><g class="mark-text role-legend-label" pointer-events="none"><text text-anchor="start" transform="translate(21,13.5)" font-family="sans-serif" font-size="17px" fill="#000" opacity="1">Occupée</text></g></g><path class="foreground" aria-hidden="true" d="" pointer-events="none" display="none"/></g><g transform="translate(0,20)"><path class="background" aria-hidden="true" d="M0,0h157v16.5h-157Z" pointer-events="none" opacity="1"/><g><g class="mark-symbol role-legend-symbol" pointer-events="none"><path transform="translate(8.5,8.5)" d="M-5,-5h10v10h-10Z" fill="#98CE00" stroke-width="1.5" opacity="1"/></g><g class="mark-text role-legend-label" pointer-events="none"><text text-anchor="start" transform="translate(21,13.5)" font-family="sans-serif" font-size="17px" fill="#000" opacity="1">Disponible</text></g></g><path class="foreground" aria-hidden="true" d="" pointer-events="none" display="none"/></g></g></g><path class="foreground" aria-hidden="true" d="" pointer-events="none" display="none"/></g></g><g class="mark-text role-legend-title" pointer-events="none"><text text-anchor="start" transform="translate(0,13)" font-family="sans-serif" font-size="17px" font-weight="bold" fill="#000" opacity="1">Disponibilité</text></g></g><path class="foreground" aria-hidden="true" d="" pointer-events="none" display="none"/></g></g><g class="mark-group role-title"><g transform="translate(450,-39)"><path class="background" aria-hidden="true" d="M0,0h0v0h0Z" pointer-events="none"/><g><g class="mark-text role-title-text" role="graphics-symbol" aria-roledescription="title" aria-label="Title text 'Occupation de la salle A207 par jour'" pointer-events="none"><text text-anchor="middle" transform="translate(0,24)" font-family="sans-serif" font-size="30px" font-weight="bold" fill="#333" opacity="1">Occupation de la salle A207 par jour</text></g></g><path class="foreground" aria-hidden="true" d="" pointer-events="none" display="none"/></g></g></g><path class="foreground" aria-hidden="true" d="" display="none"/></g></g></g></svg>